{"title":"Finding Forrester[x264][AC3(5.1)] 9Multi_Sub.mkv","uid":5281840,"size":1218001821,"categoryP":"video","categoryS":"movies","magnet":"?xt=urn:btih:ebab61142f6a7777136350121d83715f3a98791e&amp;dn=Finding+Forrester%5Bx264%5D%5BAC3%285.1%29%5D+9Multi_Sub.mkv&amp;tr=udp%3A%2F%2Ftracker.openbittorrent.com%3A80&amp;tr=udp%3A%2F%2Fopen.demonii.com%3A1337&amp;tr=udp%3A%2F%2Ftracker.coppersurfer.tk%3A6969&amp;tr=udp%3A%2F%2Fexodus.desync.com%3A6969","seeders":0,"leechers":1,"uploader":"Zen_Bud","files":-1,"time":1263576879,"description":"General\nComplete name                    : Finding Forrester.mkv\nFormat                           : Matroska\nFile size                        : 1.13 GiB\nDuration                         : 2h 10mn\nOverall bit rate                 : 1 243 Kbps\n\n\nVideo\nID                               : 1\nFormat                           : AVC\nDuration                         : 2h 10mn\nBit rate                         : 770 Kbps\nWidth                            : 720 pixels\nHeight                           : 436 pixels\nDisplay aspect ratio             : 2.35:1\nFrame rate                       : 25.000 fps\nResolution                       : 8 bits\nColorimetry                      : 4:2:0\nScan type                        : Progressive\nBits/(Pixel*Frame)               : 0.098\nStream size                      : 720 MiB (62%)\nWriting library                  : x264 core 79\n\n\nAudio\nID                               : 2\nFormat                           : AC-3\nFormat/Info                      : Audio Coding 3\nCodec ID                         : A_AC3\nDuration                         : 2h 10mn\nBit rate mode                    : Constant\nBit rate                         : 448 Kbps\nChannel(s)                       : 6 channels\nChannel positions                : Front: L C R, Surround: L R, LFE\nSampling rate                    : 48.0 KHz\nStream size                      : 419 MiB (36%)\nLanguage                         : English\n\nText #1\nLanguage                         : English\n\nText #2\nLanguage                         : Danish\n\nText #3\nLanguage                         : Dutch\n\nText #4\nLanguage                         : Finnish\n\nText #5\nLanguage                         : Icelandic\n\nText #6\nLanguage                         : Norwegian\n\nText #7\nLanguage                         : Swedish\n\nText #8\nLanguage                         : Spanish\n\nText #9\nLanguage                         : French\n\n\n","torrent":{"xt":"urn:btih:ebab61142f6a7777136350121d83715f3a98791e","amp;dn":"Finding+Forrester%5Bx264%5D%5BAC3%285.1%29%5D+9Multi_Sub.mkv","amp;tr":["udp%3A%2F%2Ftracker.openbittorrent.com%3A80","udp%3A%2F%2Fopen.demonii.com%3A1337","udp%3A%2F%2Ftracker.coppersurfer.tk%3A6969","udp%3A%2F%2Fexodus.desync.com%3A6969"],"infoHash":"ebab61142f6a7777136350121d83715f3a98791e","infoHashBuffer":{"type":"Buffer","data":[235,171,97,20,47,106,119,119,19,99,80,18,29,131,113,95,58,152,121,30]},"announce":[],"urlList":[]}}